<svg width="468" height="477" viewBox="0 0 468 477" fill="none" xmlns="http://www.w3.org/2000/svg">
<g clip-path="url(#clip0_217_253)">
<g clip-path="url(#clip1_217_253)">
<path d="M431.6 228.19C448.24 121.77 359.46 14.5001 242.89 1.18012C241.44 1.01012 239.99 0.860124 238.53 0.710124C157.08 -7.36988 82.63 54.8401 61.34 102.3C40.05 149.75 -15.66 194.9 4.99001 282.85C25.64 370.8 81.74 417.67 213.26 431.54C344.79 445.41 369.05 407.79 403.97 325.62C416.07 297.14 426.13 263.14 431.59 228.2L431.6 228.19Z" fill="#FD925E"/>
<path opacity="0.8" d="M431.6 228.19C448.24 121.77 359.46 14.5001 242.89 1.18012C241.44 1.01012 239.99 0.860124 238.53 0.710124C157.08 -7.36988 82.63 54.8401 61.34 102.3C40.05 149.75 -15.66 194.9 4.99001 282.85C25.64 370.8 81.74 417.67 213.26 431.54C344.79 445.41 369.05 407.79 403.97 325.62C416.07 297.14 426.13 263.14 431.59 228.2L431.6 228.19Z" fill="white"/>
<path d="M41.83 244.7C41.83 244.7 167.1 165.45 328.01 266.12" stroke="#263238" stroke-linecap="round" stroke-linejoin="round"/>
<path d="M191.9 253.69C183.31 246.63 208.87 219.44 208.87 219.44C197.67 217.43 199.19 217.84 199.19 217.84C199.19 217.84 170.09 245.94 169.79 261.9C169.48 277.86 214.19 292.8 214.19 292.8L230.96 285.44L245.6 280.01C245.6 280.01 200.49 260.76 191.9 253.7V253.69Z" fill="#FD925E" stroke="#263238" stroke-linecap="round" stroke-linejoin="round"/>
<path d="M168.08 323.04C168.08 323.04 275.54 220.94 452.96 288.38" stroke="#263238" stroke-linecap="round" stroke-linejoin="round"/>
<path d="M457.43 418.38C457.43 418.38 405.99 365.2 319.86 335.14C233.73 305.08 89.8 326.47 27.38 369.82" stroke="#263238" stroke-linecap="round" stroke-linejoin="round"/>
<path d="M127 393.9C116.53 397.58 107.26 400.75 98.97 403.49C128.59 417.34 166.07 426.56 213.26 431.54C223.68 432.64 233.42 433.41 242.55 433.87C302.79 389.88 330.36 338.9 330.36 338.9C332.42 339.57 296.81 323.91 256.65 322.52C256.65 322.52 206.43 366.01 126.99 393.91L127 393.9Z" fill="#FD925E"/>
<path d="M163.5 476.35C279.06 433.77 330.37 338.89 330.37 338.89C332.43 339.56 296.82 323.9 256.66 322.51C256.66 322.51 206.44 366 127 393.9C38.98 424.82 33.98 420.26 12.79 420.26" stroke="#263238" stroke-linecap="round" stroke-linejoin="round"/>
<path d="M355.11 349.18C373.83 356.75 394.88 338.39 393.39 318.82C391.93 299.79 368.13 289.54 353.2 283.26C313.57 266.6 287.72 269.48 287.72 269.48C287.72 269.48 327.92 262.02 369.84 267.18C406.14 271.65 443.9 293.61 459.27 327.91C467.53 346.36 467.86 366.84 466.28 386.65C464.49 409.06 457.44 418.39 457.44 418.39C457.44 418.39 406.87 377.71 355.12 349.19L355.11 349.18Z" fill="#FD925E" stroke="#263238" stroke-linecap="round" stroke-linejoin="round"/>
<path d="M288.38 275.3L284.52 83.1901" stroke="#263238" stroke-width="3" stroke-linecap="round" stroke-linejoin="round"/>
<path d="M310.12 107.59L328.07 117.78L321.95 126.52L326.42 137.85L302.53 130.36L310.12 107.59Z" fill="#FD925E" stroke="#263238" stroke-linecap="round" stroke-linejoin="round"/>
<path d="M309.22 127.85L302.53 130.36L310.12 107.59L309.22 127.85Z" fill="#263238" stroke="#263238" stroke-linecap="round" stroke-linejoin="round"/>
<path d="M285.28 86.2701L311.38 97.3801L309.22 127.85L285.92 119.41L285.28 86.2701Z" fill="#FD925E" stroke="#263238" stroke-linecap="round" stroke-linejoin="round"/>
<path d="M190.69 221.34L188.45 140.7" stroke="#263238" stroke-width="2" stroke-linecap="round" stroke-linejoin="round"/>
<path d="M199.28 150.86L207.04 156.05L204.3 158.77L207.16 163.05L196.16 160.44L199.28 150.86Z" fill="#FD925E" stroke="#263238" stroke-linecap="round" stroke-linejoin="round"/>
<path d="M198.96 159.37L196.16 160.44L199.28 150.86L198.96 159.37Z" fill="#263238" stroke="#263238" stroke-linecap="round" stroke-linejoin="round"/>
<path d="M188.78 141.99L199.86 146.8L198.96 159.37L189.16 155.9L188.78 141.99Z" fill="#FD925E" stroke="#263238" stroke-linecap="round" stroke-linejoin="round"/>
<path d="M258.04 232.02L256.39 179.74" stroke="#263238" stroke-linecap="round" stroke-linejoin="round"/>
<path d="M264.36 187.21L270.07 191.03L268.06 193.04L270.16 196.19L262.07 194.27L264.36 187.21Z" fill="#FD925E" stroke="#263238" stroke-linecap="round" stroke-linejoin="round"/>
<path d="M264.13 193.48L262.07 194.27L264.36 187.21L264.13 193.48Z" fill="#FD925E" stroke="#263238" stroke-linecap="round" stroke-linejoin="round"/>
<path d="M256.63 180.69L264.79 184.23L264.13 193.48L256.91 190.93L256.63 180.69Z" fill="#FD925E" stroke="#263238" stroke-linecap="round" stroke-linejoin="round"/>
<path d="M335.25 353.62L337.49 33.6701" stroke="#263238" stroke-width="4" stroke-linecap="round" stroke-linejoin="round"/>
<path d="M371.02 67.3301L395.29 84.7801L386.25 93.1901L394.91 107.21L364.12 103.23L371.02 67.3301Z" fill="#FD925E" stroke="#263238" stroke-linecap="round" stroke-linejoin="round"/>
<path d="M381.39 101.64L364.12 103.23L371.02 67.3301L381.39 101.64Z" fill="#263238" stroke="#263238" stroke-linecap="round" stroke-linejoin="round"/>
<path d="M338.4 37.8301L384.59 60.9701L381.39 101.64L338.1 82.3701L338.4 37.8301Z" fill="#FD925E" stroke="#263238" stroke-linecap="round" stroke-linejoin="round"/>
<path d="M198.13 15.6901C194.46 19.1701 192.3 22.8101 190.13 24.9801C185.38 29.7301 180.18 20.6301 170.32 23.5001C157.2 27.3301 157.68 36.0601 155.31 37.6401C152.94 39.2201 141.06 32.8901 135.52 36.0601C129.98 39.2301 126.02 46.3501 126.02 46.3501H216.21" stroke="#263238" stroke-linecap="round" stroke-linejoin="round"/>
<path d="M226.35 46.3501H281.94C281.94 46.3501 278.77 32.9001 270.07 29.7301C261.36 26.5601 258.5 34.6901 255.79 35.7001C253.08 36.7101 252.66 34.4701 252.66 34.4701C252.66 34.4701 240.79 5.19012 220.21 6.77012C213.3 7.30012 208.18 8.99012 204.24 11.1801" stroke="#263238" stroke-linecap="round" stroke-linejoin="round"/>
<path d="M398.76 153.4C396.35 155.48 395.04 157.78 393.72 159.09C391.1 161.71 388.22 156.69 382.78 158.27C375.54 160.38 375.8 165.21 374.49 166.08C373.18 166.95 366.62 163.46 363.56 165.21C360.5 166.96 358.31 170.89 358.31 170.89H416.25" stroke="#263238" stroke-linecap="round" stroke-linejoin="round"/>
<path d="M420.98 170.9H444.43C444.43 170.9 442.68 163.47 437.87 161.72C433.06 159.97 431.48 164.46 429.98 165.02C428.49 165.58 428.25 164.34 428.25 164.34C428.25 164.34 421.69 148.16 410.33 149.04C407.53 149.26 405.26 149.82 403.39 150.58" stroke="#263238" stroke-linecap="round" stroke-linejoin="round"/>
<path d="M239.4 193.07C239.4 193.07 235.56 183.59 228.89 184.1C222.23 184.61 220.69 188.46 219.15 189.99C217.61 191.52 215.93 188.58 212.73 189.51C208.48 190.75 208.64 193.58 207.87 194.09C207.1 194.6 203.26 192.55 201.46 193.58C199.67 194.61 198.38 196.91 198.38 196.91H248.87C248.87 196.91 247.84 192.55 245.03 191.53C242.22 190.51 241.28 193.14 240.41 193.46C239.53 193.79 239.4 193.06 239.4 193.06V193.07Z" stroke="#263238" stroke-linecap="round" stroke-linejoin="round"/>
<path d="M64.6 117.68C64.6 117.68 60.76 108.2 54.09 108.71C47.43 109.22 45.89 113.07 44.35 114.6C42.81 116.14 41.13 113.19 37.93 114.12C33.68 115.36 33.84 118.19 33.07 118.7C32.3 119.21 28.46 117.16 26.66 118.19C24.87 119.22 23.58 121.52 23.58 121.52H74.07C74.07 121.52 73.04 117.16 70.23 116.14C67.42 115.12 66.48 117.75 65.61 118.07C64.73 118.4 64.6 117.67 64.6 117.67V117.68Z" stroke="#263238" stroke-linecap="round" stroke-linejoin="round"/>
<path d="M133.21 89.8601C133.21 89.8601 135.49 95.9101 135.95 98.9901C136.41 102.07 137.69 103.74 137.35 104.65C137.01 105.56 135.87 107.62 135.87 108.3C135.87 108.98 137.9 114.4 138.81 116.34C139.72 118.28 137.1 118.85 136.3 119.99C135.5 121.13 135.27 123.76 134.93 127.07C134.59 130.38 135.61 132.21 134.82 133.92C134.02 135.63 128.88 135.86 126.72 135.29C124.55 134.72 123.52 133.69 123.52 133.69L122.84 136.54C122.84 136.54 117.48 132.32 112 129.92C106.52 127.52 97.5 125.13 97.5 125.13L98.07 118.74C98.07 118.74 92.02 109.72 89.62 102.19C87.22 94.6601 91.56 86.0901 94.07 82.7801C96.58 79.4701 109.02 76.9601 115.42 76.8401C121.81 76.7301 131.97 81.6301 132.43 81.7501C132.89 81.8601 136.77 80.8401 136.88 82.3201C136.99 83.8001 135.97 85.7401 135.97 85.7401C135.97 85.7401 140.88 83.4601 140.42 86.0801C139.96 88.7001 134.26 90.1901 133.23 89.8501L133.21 89.8601Z" fill="white" stroke="#263238" stroke-linecap="round" stroke-linejoin="round"/>
<path d="M134.38 110.32C134.739 110.32 135.03 109.447 135.03 108.37C135.03 107.293 134.739 106.42 134.38 106.42C134.021 106.42 133.73 107.293 133.73 108.37C133.73 109.447 134.021 110.32 134.38 110.32Z" fill="#263238"/>
<path d="M136.25 104.14C136.25 104.14 135.34 102.71 133.65 104.53" stroke="#263238" stroke-linecap="round" stroke-linejoin="round"/>
<path d="M134.81 133.92C135.61 132.21 134.58 130.38 134.92 127.07C135.26 123.76 135.49 121.13 136.29 119.99C134.01 119.19 129.33 122.62 128.76 121.82C128.19 121.02 127.73 106.75 128.08 104.58C128.43 102.41 131.39 102.41 132.65 99.6701C133.91 96.9301 129.68 93.8501 129.45 92.0201C129.22 90.1901 133.22 89.8501 133.22 89.8501C134.25 90.1901 139.95 88.7101 140.41 86.0801C140.87 83.4501 135.96 85.7401 135.96 85.7401C135.96 85.7401 136.99 83.8001 136.87 82.3201C136.76 80.8401 132.87 81.8601 132.42 81.7501C131.96 81.6401 121.8 76.7301 115.41 76.8401C109.02 76.9501 96.58 79.4701 94.06 82.7801C91.55 86.0901 87.21 94.6501 89.61 102.19C91.65 108.61 96.34 116.1 97.68 118.17C98.25 118.54 98.69 118.79 98.97 118.86C101.14 119.43 105.7 120.69 111.41 119.66C117.12 118.63 121.68 116.58 120.88 114.98C120.08 113.38 119.62 106.76 121.45 103.68C123.28 100.6 125.33 105.28 124.87 110.87C124.41 116.46 123.16 120 122.82 123.54C122.48 127.08 123.5 133.7 123.5 133.7C123.5 133.7 124.53 134.73 126.7 135.3C128.87 135.87 134.01 135.64 134.8 133.93L134.81 133.92Z" fill="#263238" stroke="#263238" stroke-linecap="round" stroke-linejoin="round"/>
<path d="M124.28 135.49C124.28 135.49 124.8 133.15 115.7 128.86C106.6 124.57 96.97 122.75 95.8 123.27C94.63 123.79 93.33 126.26 93.33 126.26C93.33 126.26 102.96 127.82 110.89 131.85C118.82 135.88 125.59 139.39 125.59 139.39L124.29 135.49H124.28Z" fill="white" stroke="#263238" stroke-linecap="round" stroke-linejoin="round"/>
<path d="M129.36 141.86C129.36 141.86 128.19 138.87 124.03 136.79C119.87 134.71 115.5 130.14 98.54 126.38C95.32 125.67 94.25 125.86 93.34 126.25C92.43 126.64 89.83 129.11 88.66 130.93L87.49 132.75C87.49 132.75 98.55 132.62 106.22 134.96C113.89 137.3 131.71 144.2 131.71 144.2L129.37 141.86H129.36Z" fill="#FD925E" stroke="#263238" stroke-linecap="round" stroke-linejoin="round"/>
<path d="M166.38 270.57C166.38 270.57 162.38 273.96 163.46 276.57C164.54 279.18 166.85 283.03 166.85 283.03L168.54 281.18C168.54 281.18 166.23 275.95 166.69 275.18C167.15 274.41 178.23 267.95 178.23 267.95L181.46 274.72L183.15 273.34C183.15 273.34 180.38 266.26 179.3 265.65C178.22 265.03 169.14 267.5 166.37 270.57H166.38Z" fill="#263238" stroke="#263238" stroke-linecap="round" stroke-linejoin="round"/>
<path d="M168.84 253.8C168.84 253.8 179 263.8 179.61 264.42C180.22 265.04 180.69 267.34 180.23 268.57C179.77 269.8 171.15 276.57 169.46 277.34C167.77 278.11 166.84 275.8 166.69 275.19C166.54 274.58 165.77 272.88 165.61 272.42C165.45 271.96 161.3 267.34 160.07 263.8C158.84 260.26 158.69 258.88 158.69 258.88L168.85 253.8H168.84Z" fill="white" stroke="#263238" stroke-linecap="round" stroke-linejoin="round"/>
<path d="M47.54 260.95C47.54 260.95 49.63 265.77 50.11 266.25C50.59 266.73 55.25 271.71 55.73 272.99C56.21 274.27 55.73 278.61 57.5 281.82C59.27 285.03 58.14 286.31 56.22 285.67C54.29 285.03 52.85 281.18 52.85 281.18C52.85 281.18 54.62 287.6 54.94 288.72C55.26 289.84 60.08 291.13 59.27 292.25C58.47 293.37 49.96 293.86 48.03 293.69C46.1 293.53 42.57 289.04 41.45 288.39C40.33 287.75 37.44 275.55 36.63 273.3C35.83 271.05 34.54 261.26 34.54 261.26L47.54 260.94V260.95Z" fill="white" stroke="#263238" stroke-linecap="round" stroke-linejoin="round"/>
<path d="M45.77 271.22C45.77 271.22 46.25 276.2 45.29 278.76C44.33 281.33 44.49 284.22 44.49 284.22C44.49 284.22 46.26 288.71 46.9 289.2C47.54 289.68 54.6 290.16 53.48 291.29" stroke="#263238" stroke-linecap="round" stroke-linejoin="round"/>
<path d="M125.53 430.17C125.53 430.17 129.68 433.34 131.66 434.52C133.64 435.71 142.15 436.5 142.74 438.08C143.33 439.66 141.84 441.15 141.01 441.89C140.1 442.71 134.23 444.89 129.68 444.41C127.87 444.22 126.32 444.61 124.93 444.81C123.54 445.01 113.85 446.2 109.7 446.59C105.55 446.99 104.56 443.62 104.36 439.47C104.16 435.32 104.36 430.57 104.36 430.57L120.98 428.2L125.53 430.18V430.17Z" fill="white" stroke="#263238" stroke-linecap="round" stroke-linejoin="round"/>
<path d="M131.1 441.78C127.53 441.55 124.99 442.47 115.19 442.93C109.64 443.19 106.46 442.9 104.74 442.59C105.32 445.15 106.66 446.87 109.7 446.58C113.85 446.18 123.55 445 124.93 444.8C126.31 444.6 127.86 444.21 129.68 444.4C134.23 444.88 140.1 442.7 141.01 441.88C141.66 441.3 142.7 440.26 142.84 439.07C139.76 441.1 133.93 441.95 131.09 441.76L131.1 441.78Z" fill="white" stroke="#263238" stroke-linecap="round" stroke-linejoin="round"/>
<path d="M60.83 267.4C60.83 267.4 65.18 283.23 70.52 297.08C75.86 310.93 82.79 331.7 82.79 331.7L87.74 361.77C87.74 361.77 88.53 376.81 91.3 387.89C94.07 398.97 104.76 432.54 104.76 432.54C104.76 432.54 108.52 434.12 113.47 433.93C118.42 433.73 125.54 430.17 125.54 430.17C125.54 430.17 126.13 425.62 125.74 423.64C125.34 421.66 122.97 420.67 122.38 419.09C121.79 417.51 114.26 371.28 114.26 371.28C114.26 371.28 111.89 338.44 111.09 332.11C110.3 325.78 108.32 272.36 108.32 272.36L60.84 267.41L60.83 267.4Z" fill="#263238" stroke="#263238" stroke-linecap="round" stroke-linejoin="round"/>
<path d="M26.65 405.14C26.65 405.14 11.57 408.05 7.78999 409.25C4.01999 410.45 4.01999 412.68 4.87999 416.79C5.73999 420.9 7.44999 422.96 8.13999 423.47C8.82999 423.98 9.33999 430.5 11.23 434.61C13.12 438.72 17.4 446.95 21.34 449.01C25.28 451.07 29.57 451.07 30.08 450.38C30.59 449.69 29.05 444.89 29.05 444.89L25.11 432.21C25.11 432.21 29.74 419.7 30.42 419.01C31.11 418.32 34.53 414.72 34.53 414.72L26.65 405.12V405.14Z" fill="white" stroke="#263238" stroke-linecap="round" stroke-linejoin="round"/>
<path d="M21.33 449.02C25.27 451.08 29.56 451.08 30.07 450.39C30.22 450.19 30.19 449.64 30.08 448.97C26.58 448.8 20.66 447.99 18.24 444.22C15.15 439.42 12.07 429.14 10.7 423.48C9.62998 419.08 8.45998 412.07 7.98998 409.19C7.91998 409.21 7.84998 409.23 7.77998 409.25C4.00998 410.45 4.00998 412.68 4.86998 416.79C5.72998 420.9 7.43998 422.96 8.12998 423.47C8.81998 423.98 9.32998 430.5 11.22 434.61C13.11 438.72 17.39 446.95 21.33 449.01V449.02Z" fill="white" stroke="#263238" stroke-linecap="round" stroke-linejoin="round"/>
<path d="M76.26 271.75C76.26 271.75 82 279.27 82.59 280.26C83.18 281.25 87.34 318.84 87.73 322.6C88.12 326.36 87.73 331.7 87.73 331.7C87.73 331.7 73.82 345.58 64.72 356.85C55.62 368.13 26 404.57 26 404.57L38.97 424.81C38.97 424.81 55.22 411.77 66.87 400.67C85.31 383.1 102.66 364.53 103.85 363.54C105.04 362.55 113.04 354.07 113.63 351.7C114.22 349.33 120.57 316.06 122.75 305.38C124.93 294.7 127.89 265.81 127.89 265.81L73.48 267.2" fill="#263238"/>
<path d="M76.26 271.75C76.26 271.75 82 279.27 82.59 280.26C83.18 281.25 87.34 318.84 87.73 322.6C88.12 326.36 87.73 331.7 87.73 331.7C87.73 331.7 73.82 345.58 64.72 356.85C55.62 368.13 26 404.57 26 404.57L38.97 424.81C38.97 424.81 55.22 411.77 66.87 400.67C85.31 383.1 102.66 364.53 103.85 363.54C105.04 362.55 113.04 354.07 113.63 351.7C114.22 349.33 120.57 316.06 122.75 305.38C124.93 294.7 127.89 265.81 127.89 265.81L73.48 267.2" stroke="#263238" stroke-linecap="round" stroke-linejoin="round"/>
<path d="M88.64 130.94C88.64 130.94 79.01 136.01 73.94 138.48C68.87 140.95 51.96 146.02 50.27 148.76C48.58 151.5 48.84 155.78 48.84 155.78C48.84 155.78 32.24 201.48 31.83 209.45C31.42 217.42 33.06 262.77 33.06 262.77C33.06 262.77 34.29 264.61 40.82 264.4C47.36 264.2 50.01 262.97 50.01 262.97C50.01 262.97 53.28 217.21 53.89 214.56C54.5 211.9 55.52 209.66 55.52 209.66L62.67 195.36C62.67 195.36 65.12 210.07 65.12 210.68C65.12 211.29 51.64 266.45 51.64 266.45C51.64 266.45 51.64 270.13 75.54 273.4C99.44 276.67 120.28 278.71 121.3 278.71C122.32 278.71 127.84 269.52 127.84 269.52C127.84 269.52 129.27 274.63 128.86 275.24C128.45 275.85 132.95 274.22 133.97 273.4C134.99 272.58 138.06 270.13 138.06 270.13C138.06 270.13 131.73 234.99 131.73 232.34C131.73 229.69 133.36 220.08 133.36 220.08L157.06 263.39C157.06 263.39 157.06 264 162.78 260.73C168.5 257.46 171.36 254.19 171.36 254.19L152.16 207C152.16 207 147.67 154.91 147.26 152.25C146.85 149.59 147.87 148.98 145.42 147.76C142.97 146.53 131.71 144.21 131.71 144.21C131.71 144.21 113.18 137.1 106.22 134.97C99.26 132.84 88.66 130.94 88.66 130.94H88.64Z" fill="#FD925E" stroke="#263238" stroke-linecap="round" stroke-linejoin="round"/>
<path d="M62.6699 195.35L55.9299 159.19L58.7899 202.3L62.6699 195.35Z" fill="#263238" stroke="#263238" stroke-linecap="round" stroke-linejoin="round"/>
<path d="M94.27 180.62C95.07 182.14 95.97 183.53 96.99 184.73" stroke="#263238" stroke-linecap="round" stroke-linejoin="round"/>
<path d="M88.21 153.27C88.21 153.27 88.62 168.03 93.31 178.62" stroke="#263238" stroke-linecap="round" stroke-linejoin="round"/>
<path d="M85.15 165.12C85.15 165.12 86.58 171.66 90.26 177.99" stroke="#263238" stroke-linecap="round" stroke-linejoin="round"/>
<path d="M85.3 226.45C93.76 224.34 105.51 221.47 110.48 220.47C118.65 218.84 99.24 220.47 99.24 220.47" stroke="#263238" stroke-linecap="round" stroke-linejoin="round"/>
<path d="M75.7499 228.85C75.7499 228.85 77.4199 228.43 80.0599 227.76" stroke="#263238" stroke-linecap="round" stroke-linejoin="round"/>
<path d="M133.36 220.07C133.36 220.07 128.66 212.31 128.25 210.47C127.84 208.63 124.57 188.61 124.57 188.61C124.57 188.61 126.82 220.48 127.63 224.77C128.45 229.06 131.72 232.33 131.72 232.33L133.35 220.07H133.36Z" fill="#263238" stroke="#263238" stroke-linecap="round" stroke-linejoin="round"/>
<path d="M122.52 179.91C122.97 182.48 123.35 184.12 123.35 184.12" stroke="#263238" stroke-linecap="round" stroke-linejoin="round"/>
<path d="M130.29 148.77C130.29 148.77 122.32 150.81 121.3 160.82C120.76 166.07 121.35 172.22 122.03 176.88" stroke="#263238" stroke-linecap="round" stroke-linejoin="round"/>
<path d="M118.85 160.42C118.85 160.42 119.05 168.39 120.89 174.72" stroke="#263238" stroke-linecap="round" stroke-linejoin="round"/>
<path d="M195 266.57C195 266.57 154.68 287.65 153.45 289.19C152.22 290.73 152.99 293.19 153.3 294.27C153.61 295.35 163.3 334.89 164.53 335.51C165.76 336.13 169.61 334.13 169.61 334.13C169.61 334.13 173.92 336.75 175 336.28C176.08 335.82 212.55 313.2 214.55 311.35C216.55 309.5 216.4 308.12 215.78 306.73C215.16 305.35 205.78 284.26 205.78 284.26C205.78 284.26 206.86 282.57 206.24 281.18C205.62 279.8 200.55 269.64 199.47 268.1C198.39 266.56 199.01 264.87 195.01 266.56L195 266.57Z" fill="#969696" stroke="#263238" stroke-linecap="round" stroke-linejoin="round"/>
<path d="M153.3 294.27C153.61 295.35 163.3 334.89 164.53 335.51C165.76 336.13 169.61 334.13 169.61 334.13C169.61 334.13 173.7 336.61 174.9 336.3C171.88 328.4 160.25 297.41 158.22 292.27C156.5 287.91 154.69 288.34 153.88 288.84C153.73 288.94 153.62 289.03 153.54 289.09C153.52 289.11 153.51 289.12 153.5 289.13C153.48 289.15 153.46 289.17 153.45 289.18C152.22 290.72 152.99 293.18 153.3 294.26V294.27Z" fill="#263238" stroke="#263238" stroke-linecap="round" stroke-linejoin="round"/>
<path d="M165.61 310.12L204.85 285.5" stroke="#263238" stroke-linecap="round" stroke-linejoin="round"/>
<path d="M183.76 296.58L186.53 301.35L190.54 298.42L187.92 293.96L183.76 296.58Z" fill="white" stroke="#263238" stroke-linecap="round" stroke-linejoin="round"/>
</g>
</g>
<defs>
<clipPath id="clip0_217_253">
<rect width="467.04" height="476.85" fill="white" transform="translate(0.47998 0.00012207)"/>
</clipPath>
<clipPath id="clip1_217_253">
<rect width="467.04" height="476.85" fill="white" transform="translate(0.47998 0.00012207)"/>
</clipPath>
</defs>
</svg>
